name rise45.9887peak57.8056fall74.9286.mot
datacolumns 19
datarows 24
range 16.10327700000000 16.14160400000000
endheader
time	ground_force1_vx	ground_force1_vy	ground_force1_vz	ground_force1_px	ground_force1_py	ground_force1_pz	ground_force2_vx	ground_force2_vy	ground_force2_vz	ground_force2_px	ground_force2_py	ground_force2_pz	ground_torque1_x	ground_torque1_y	ground_torque1_z	ground_torque2_x	ground_torque2_y	ground_torque2_z	
16.10327700000000	57.35350400000000	781.81673499999999	68.45591100000000	0.28936500000000	0.00000000000000	0.13600200000000	0.00000000000000	0.00000000000000	0.00000000000000	0.00000000000000	0.00000000000000	0.00000000000000	0.00000000000000	24.88320900000000	0.00000000000000	0.00000000000000	0.00000000000000	0.00000000000000	
16.10494100000000	56.63844500000000	783.56317400000000	68.46565900000000	0.28842700000000	0.00000000000000	0.13596000000000	0.00000000000000	0.00000000000000	0.00000000000000	0.00000000000000	0.00000000000000	0.00000000000000	0.00000000000000	24.91877900000000	0.00000000000000	0.00000000000000	0.00000000000000	0.00000000000000	
16.10660400000000	55.93652000000000	785.18344500000001	68.47416600000000	0.28752600000000	0.00000000000000	0.13591800000000	0.00000000000000	0.00000000000000	0.00000000000000	0.00000000000000	0.00000000000000	0.00000000000000	0.00000000000000	24.95299900000000	0.00000000000000	0.00000000000000	0.00000000000000	0.00000000000000	
16.10827600000000	55.24781400000000	786.67651899999998	68.48137300000000	0.28666300000000	0.00000000000000	0.13587500000000	0.00000000000000	0.00000000000000	0.00000000000000	0.00000000000000	0.00000000000000	0.00000000000000	0.00000000000000	24.98580500000000	0.00000000000000	0.00000000000000	0.00000000000000	0.00000000000000	
16.10994100000000	54.57230000000000	788.04152699999997	68.48714400000000	0.28583300000000	0.00000000000000	0.13583300000000	0.00000000000000	0.00000000000000	0.00000000000000	0.00000000000000	0.00000000000000	0.00000000000000	0.00000000000000	25.01709900000000	0.00000000000000	0.00000000000000	0.00000000000000	0.00000000000000	
16.11161000000000	53.90984800000000	789.27776800000004	68.49126600000000	0.28503600000000	0.00000000000000	0.13579100000000	0.00000000000000	0.00000000000000	0.00000000000000	0.00000000000000	0.00000000000000	0.00000000000000	0.00000000000000	25.04675200000000	0.00000000000000	0.00000000000000	0.00000000000000	0.00000000000000	
16.11327500000000	53.26022500000000	790.38472500000000	68.49345300000000	0.28427000000000	0.00000000000000	0.13574800000000	0.00000000000000	0.00000000000000	0.00000000000000	0.00000000000000	0.00000000000000	0.00000000000000	0.00000000000000	25.07460800000000	0.00000000000000	0.00000000000000	0.00000000000000	0.00000000000000	
16.11494200000000	52.62310700000000	791.36207400000001	68.49335900000000	0.28353100000000	0.00000000000000	0.13570600000000	0.00000000000000	0.00000000000000	0.00000000000000	0.00000000000000	0.00000000000000	0.00000000000000	0.00000000000000	25.10048500000000	0.00000000000000	0.00000000000000	0.00000000000000	0.00000000000000	
16.11660600000000	51.99808400000000	792.20969000000002	68.49057200000000	0.28281800000000	0.00000000000000	0.13566300000000	0.00000000000000	0.00000000000000	0.00000000000000	0.00000000000000	0.00000000000000	0.00000000000000	0.00000000000000	25.12417600000000	0.00000000000000	0.00000000000000	0.00000000000000	0.00000000000000	
16.11827300000000	51.38466400000000	792.92765999999995	68.48463200000000	0.28212800000000	0.00000000000000	0.13562100000000	0.00000000000000	0.00000000000000	0.00000000000000	0.00000000000000	0.00000000000000	0.00000000000000	0.00000000000000	25.14545600000000	0.00000000000000	0.00000000000000	0.00000000000000	0.00000000000000	
16.11994000000000	50.78228300000000	793.51628600000004	68.47502900000001	0.28145800000000	0.00000000000000	0.13557900000000	0.00000000000000	0.00000000000000	0.00000000000000	0.00000000000000	0.00000000000000	0.00000000000000	0.00000000000000	25.16408200000000	0.00000000000000	0.00000000000000	0.00000000000000	0.00000000000000	
16.12161200000000	50.19031200000000	793.97609000000000	68.46120999999999	0.28080500000000	0.00000000000000	0.13553700000000	0.00000000000000	0.00000000000000	0.00000000000000	0.00000000000000	0.00000000000000	0.00000000000000	0.00000000000000	25.17979500000000	0.00000000000000	0.00000000000000	0.00000000000000	0.00000000000000	
16.12327100000000	49.60806600000000	794.30782399999998	68.44259000000000	0.28016700000000	0.00000000000000	0.13549600000000	0.00000000000000	0.00000000000000	0.00000000000000	0.00000000000000	0.00000000000000	0.00000000000000	0.00000000000000	25.19232600000000	0.00000000000000	0.00000000000000	0.00000000000000	0.00000000000000	
16.12494100000000	49.03480700000000	794.51246200000003	68.41855600000000	0.27954100000000	0.00000000000000	0.13545400000000	0.00000000000000	0.00000000000000	0.00000000000000	0.00000000000000	0.00000000000000	0.00000000000000	0.00000000000000	25.20139600000000	0.00000000000000	0.00000000000000	0.00000000000000	0.00000000000000	
16.12661100000000	48.46975700000000	794.59121500000003	68.38847100000000	0.27892400000000	0.00000000000000	0.13541300000000	0.00000000000000	0.00000000000000	0.00000000000000	0.00000000000000	0.00000000000000	0.00000000000000	0.00000000000000	25.20672000000000	0.00000000000000	0.00000000000000	0.00000000000000	0.00000000000000	
16.12827400000000	47.91210100000000	794.54551900000001	68.35168500000000	0.27831300000000	0.00000000000000	0.13537300000000	0.00000000000000	0.00000000000000	0.00000000000000	0.00000000000000	0.00000000000000	0.00000000000000	0.00000000000000	25.20801200000000	0.00000000000000	0.00000000000000	0.00000000000000	0.00000000000000	
16.12993700000000	47.36100000000000	794.37704299999996	68.30754000000000	0.27770500000000	0.00000000000000	0.13533200000000	0.00000000000000	0.00000000000000	0.00000000000000	0.00000000000000	0.00000000000000	0.00000000000000	0.00000000000000	25.20498300000000	0.00000000000000	0.00000000000000	0.00000000000000	0.00000000000000	
16.13161100000000	46.81559400000000	794.08768199999997	68.25537500000000	0.27709700000000	0.00000000000000	0.13529300000000	0.00000000000000	0.00000000000000	0.00000000000000	0.00000000000000	0.00000000000000	0.00000000000000	0.00000000000000	25.19735100000000	0.00000000000000	0.00000000000000	0.00000000000000	0.00000000000000	
16.13327600000000	46.27501100000000	793.67955400000005	68.19453500000000	0.27648600000000	0.00000000000000	0.13525300000000	0.00000000000000	0.00000000000000	0.00000000000000	0.00000000000000	0.00000000000000	0.00000000000000	0.00000000000000	25.18483700000000	0.00000000000000	0.00000000000000	0.00000000000000	0.00000000000000	
16.13494400000000	45.73837600000000	793.15499999999997	68.12437500000000	0.27587000000000	0.00000000000000	0.13521500000000	0.00000000000000	0.00000000000000	0.00000000000000	0.00000000000000	0.00000000000000	0.00000000000000	0.00000000000000	25.16717300000000	0.00000000000000	0.00000000000000	0.00000000000000	0.00000000000000	
16.13660600000000	45.20481500000000	792.51657299999999	68.04426900000000	0.27524600000000	0.00000000000000	0.13517600000000	0.00000000000000	0.00000000000000	0.00000000000000	0.00000000000000	0.00000000000000	0.00000000000000	0.00000000000000	25.14410100000000	0.00000000000000	0.00000000000000	0.00000000000000	0.00000000000000	
16.13828400000000	44.67346500000000	791.76703599999996	67.95361200000001	0.27461100000000	0.00000000000000	0.13513900000000	0.00000000000000	0.00000000000000	0.00000000000000	0.00000000000000	0.00000000000000	0.00000000000000	0.00000000000000	25.11537900000000	0.00000000000000	0.00000000000000	0.00000000000000	0.00000000000000	
16.13994100000000	44.14347700000000	790.90935100000002	67.85182900000000	0.27396100000000	0.00000000000000	0.13510200000000	0.00000000000000	0.00000000000000	0.00000000000000	0.00000000000000	0.00000000000000	0.00000000000000	0.00000000000000	25.08078100000000	0.00000000000000	0.00000000000000	0.00000000000000	0.00000000000000	
16.14160400000000	43.61402700000000	789.94667500000003	67.73837700000000	0.27329600000000	0.00000000000000	0.13506500000000	0.00000000000000	0.00000000000000	0.00000000000000	0.00000000000000	0.00000000000000	0.00000000000000	0.00000000000000	25.04010200000000	0.00000000000000	0.00000000000000	0.00000000000000	0.00000000000000	
